<?xml version="1.0" encoding="utf-8"?>
<!-- Generator: Adobe Illustrator 21.0.0, SVG Export Plug-In . SVG Version: 6.00 Build 0)  -->
<svg version="1.1" id="Слой_1" xmlns="http://www.w3.org/2000/svg" xmlns:xlink="http://www.w3.org/1999/xlink" x="0px" y="0px"
	 viewBox="0 0 142 158" style="enable-background:new 0 0 142 158;" xml:space="preserve">
<style type="text/css">
	.st0{stroke:#fff;stroke-width:0.5;stroke-miterlimit:10;}
	.st1{fill:none;stroke:#ffffff;stroke-width:0.5;stroke-miterlimit:10;}
	.st2{fill:none;stroke:#fff;stroke-width:0.5;stroke-miterlimit:10;}
	.st3{fill:none;stroke:#fff;stroke-width:0.25;stroke-miterlimit:10;}
	.st4{stroke:#fff;stroke-width:0.2;stroke-miterlimit:10;}
</style>
<g id="ЛОГО">
	<path fill='#fff' d="M132.7,40.7h-31.3c-0.1-1.3-1.3-15.7-11.3-16.6H51.9c-9.9,1-11.1,15.3-11.3,16.6h-0.1H8.9c-4.6,0-8.3,3.6-7.8,8.1v76.9
		c-0.5,4.4,3.3,8.1,7.8,8.1h123.8c4.6,0,8.3-3.6,8.3-8.1V48.8C141,44.4,137.3,40.7,132.7,40.7z M70.5,123.3
		c-20.6,0-37.3-16.2-37.3-36.2S50,51,70.5,51s37.3,16.2,37.3,36.2S91.1,123.3,70.5,123.3z M128.7,58.7h-16.1v-8h16.1V58.7z"/>
	<polyline fill='#fff' class="st0" points="70.6,120 70.5,117.4 70.2,117 67.5,117 67.2,117.4 67.2,119.8 	"/>
	<path fill='#fff' class="st1" d="M76.8,82.7"/>
	<polygon fill='#fff' points="74.8,60.6 73.3,60.9 73.3,57.6 74.8,57.3 	"/>
	<polygon fill='#fff' points="72.6,61 71.1,61.3 71.1,58 72.6,57.7 	"/>
	<polygon fill='#fff' points="68.1,61.7 66.6,62.1 66.6,58.8 68.1,58.5 	"/>
	<polygon fill='#fff' points="70.3,61.3 68.8,61.7 68.8,58.4 70.3,58.1 	"/>
	<polygon fill='#fff' points="74.8,64.7 73.3,65.1 73.3,61.8 74.8,61.5 	"/>
	<polygon fill='#fff' points="72.5,65.2 71,65.5 71,62.2 72.5,61.9 	"/>
	<polygon fill='#fff' points="70.3,65.5 68.8,65.9 68.8,62.6 70.3,62.2 	"/>
	<polygon fill='#fff' points="68,65.9 66.5,66.3 66.5,63 68,62.7 	"/>
	<polygon fill='#fff' points="74.8,68.9 73.3,69.3 73.3,66 74.8,65.7 	"/>
	<polygon fill='#fff' points="72.5,69.3 71,69.7 71,66.4 72.5,66.1 	"/>
	<polygon fill='#fff' points="70.3,69.7 68.8,70.1 68.8,66.7 70.3,66.4 	"/>
	<polygon fill='#fff' points="68,70.1 66.5,70.5 66.5,67.2 68,66.8 	"/>
	<polygon fill='#fff' points="74.8,73.1 73.3,73.5 73.3,70.2 74.8,69.8 	"/>
	<polygon fill='#fff' points="72.5,73.5 71,73.9 71,70.6 72.5,70.3 	"/>
	<polygon fill='#fff' points="70.3,73.9 68.8,74.3 68.8,70.9 70.3,70.6 	"/>
	<polygon fill='#fff' points="68,74.3 66.5,74.7 66.5,71.3 68,71 	"/>
	<polyline fill='#fff' class="st2" points="79.5,85.1 79.5,59.9 76.1,55.1 	"/>
	<path fill='#fff' class="st1" d="M78.5,119.4"/>
	<polyline fill='#fff' class="st2" points="78.8,99.3 71.2,99.3 71.2,114.1 66.7,114.1 66.7,90.2 63,88.4 	"/>
	<polyline fill='#fff' class="st2" points="59.7,100.3 63.8,100.3 66.7,101.6 	"/>
	<line class="st2" x1="78.8" y1="119.4" x2="78.7" y2="99.1"/>
	<path fill='#fff' class="st1" d="M76.1,54.9"/>
	<path fill='#fff' class="st1" d="M79.5,60"/>
	<polygon fill='#fff' points="74.8,77.3 73.3,77.7 73.3,74.3 74.8,74 	"/>
	<polygon fill='#fff' points="72.5,77.7 71,78.1 71,74.7 72.5,74.4 	"/>
	<polygon fill='#fff' points="70.3,78.1 68.8,78.4 68.8,75.1 70.3,74.8 	"/>
	<polygon fill='#fff' points="68,78.5 66.5,78.8 66.5,75.5 68,75.2 	"/>
	<polygon fill='#fff' points="74.8,81.5 73.3,81.8 73.3,78.5 74.8,78.2 	"/>
	<polygon fill='#fff' points="72.5,81.9 71,82.3 71,78.9 72.5,78.6 	"/>
	<polygon fill='#fff' points="70.3,82.3 68.8,82.6 68.8,79.3 70.3,79 	"/>
	<polygon fill='#fff' points="68,82.7 66.5,83 66.5,79.7 68,79.4 	"/>
	<polygon fill='#fff' points="74.8,85.7 73.3,86 73.3,82.7 74.8,82.4 	"/>
	<polygon fill='#fff' points="72.5,86.1 71,86.4 71,83.1 72.5,82.8 	"/>
	<polygon fill='#fff' points="70.3,86.4 68.8,86.8 68.8,83.5 70.3,83.2 	"/>
	<polygon fill='#fff' points="68,86.9 66.5,87.2 66.5,83.9 68,83.6 	"/>
	<polygon fill='#fff' points="70.3,90.6 68.8,91 68.8,87.7 70.3,87.4 	"/>
	<polygon fill='#fff' points="70.3,94.8 68.8,95.2 68.8,91.8 70.3,91.5 	"/>
	<polygon fill='#fff' points="70.3,99 68.8,99.4 68.8,96 70.3,95.7 	"/>
	<polygon fill='#fff' points="70.3,103.2 68.8,103.5 68.8,100.2 70.3,99.9 	"/>
	<polygon fill='#fff' points="70.3,107.4 68.8,107.7 68.8,104.4 70.3,104.1 	"/>
	<polygon fill='#fff' points="70.3,111.5 68.8,111.9 68.8,108.6 70.3,108.3 	"/>
	<path fill='#fff' class="st1" d="M80.6,90.5"/>
	<line class="st2" x1="63.7" y1="100.3" x2="63.7" y2="114.6"/>
	<polyline fill='#fff' class="st2" points="77.1,88.4 77.1,83.9 80.5,85.7 80.5,91 	"/>
	<path fill='#fff' class="st1" d="M82.6,94.7"/>
	<path fill='#fff' class="st2" d="M77.1,83.9l-1.1-0.6l0-28L65.3,57v27.3H63v0.4v3.8l-1.9,0v0.9h-0.4v2.5h-1.1v8.4h-3V117
		c14.2,6.2,28.5,0.7,28.5,0.7V113v-10.6"/>
	<path fill='#fff' class="st1" d="M82.2,94.5"/>
	<path fill='#fff' class="st1" d="M82.1,94.5"/>
	<path fill='#fff' class="st1" d="M77,91.2"/>
	<line class="st2" x1="77.1" y1="88.4" x2="77.1" y2="99.3"/>
	<path fill='#fff' class="st1" d="M80.5,90.5"/>
	<circle class="st1" cx="67.6" cy="93.2" r="0"/>
	<line class="st2" x1="64.3" y1="100.4" x2="64.3" y2="89"/>
	<line class="st2" x1="60.8" y1="91.9" x2="64.3" y2="91.9"/>
	<polyline fill='#fff' class="st2" points="72.2,99.3 72.2,91.1 73.2,91.1 73.2,88.4 77.1,88.4 81.7,91.9 81.7,94.3 	"/>
	<g>
		<polygon fill='#fff' points="61,93.1 60.6,93.2 60.6,94.1 61,94.1 		"/>
		<polygon fill='#fff' points="62.1,93.1 61.7,93.2 61.7,93.9 62.1,93.9 		"/>
		<polygon fill='#fff' points="63.2,93.1 62.9,93.2 62.9,93.8 63.2,93.7 		"/>
		<g>
			<polygon fill='#fff' points="61,94.9 61,94.4 60.6,94.4 60.6,95 60.7,95 			"/>
			<polygon fill='#fff' points="62.1,94.8 62.1,94.2 61.7,94.3 61.7,94.8 61.8,94.8 			"/>
			<polygon fill='#fff' points="63.2,94.6 63.2,94 62.9,94.1 62.9,94.7 63,94.7 			"/>
			<g>
				<polygon fill='#fff' points="60.7,95.8 61,95.8 61,95.2 60.7,95.3 60.6,95.3 60.6,95.9 60.6,95.9 				"/>
				<polygon fill='#fff' points="61.8,95.7 62.1,95.6 62.1,95.1 61.8,95.1 61.7,95.1 61.7,95.7 61.7,95.7 				"/>
				<polygon fill='#fff' points="63,95.5 63.2,95.5 63.2,94.9 63,95 62.9,95 62.9,95.5 62.9,95.5 				"/>
				<g>
					<polygon fill='#fff' points="60.7,96.7 61,96.7 61,96.1 60.7,96.1 60.6,96.2 60.6,96.2 60.6,96.7 60.6,96.7 					"/>
					<polygon fill='#fff' points="60.6,97 60.6,97 60.6,99.3 61,99.2 61,97 60.7,97 					"/>
					<polygon fill='#fff' points="61.8,96.5 62.1,96.5 62.1,96 61.8,96 61.7,96 61.7,96 61.7,96.5 61.7,96.5 					"/>
					<polygon fill='#fff' points="61.7,96.9 61.7,96.9 61.7,99.3 62.1,99.2 62.1,96.8 61.8,96.8 					"/>
					<polygon fill='#fff' points="62.9,96.7 62.9,96.7 62.9,99.3 63.2,99.2 63.2,96.6 63,96.7 					"/>
					<polygon fill='#fff' points="63,96.4 63.2,96.3 63.2,95.8 63,95.8 62.9,95.8 62.9,95.9 62.9,96.4 62.9,96.4 					"/>
				</g>
			</g>
		</g>
	</g>
	<g>
		<polygon fill='#fff' points="73.7,92.4 73.4,92.5 73.4,93.4 73.7,93.3 		"/>
		<polygon fill='#fff' points="74.9,92.4 74.5,92.5 74.5,93.2 74.9,93.2 		"/>
		<polygon fill='#fff' points="76,92.4 75.6,92.5 75.6,93 76,93 		"/>
		<g>
			<polygon fill='#fff' points="73.7,94.2 73.7,93.6 73.4,93.7 73.4,94.3 73.5,94.2 			"/>
			<polygon fill='#fff' points="74.9,94.1 74.9,93.5 74.5,93.5 74.5,94.1 74.6,94.1 			"/>
			<polygon fill='#fff' points="76,93.9 76,93.3 75.6,93.4 75.6,93.9 75.7,93.9 			"/>
			<g>
				<polygon fill='#fff' points="73.5,95.1 73.7,95.1 73.7,94.5 73.5,94.5 73.4,94.6 73.4,95.1 73.4,95.1 				"/>
				<polygon fill='#fff' points="74.6,94.9 74.9,94.9 74.9,94.4 74.6,94.4 74.5,94.4 74.5,95 74.5,95 				"/>
				<polygon fill='#fff' points="75.8,94.8 76,94.7 76,94.2 75.7,94.2 75.6,94.3 75.6,94.8 75.6,94.8 				"/>
				<g>
					<polygon fill='#fff' points="73.5,96 73.7,95.9 73.7,95.4 73.5,95.4 73.4,95.4 73.4,95.4 73.4,96 73.4,96 					"/>
					<polygon fill='#fff' points="73.4,96.3 73.4,96.3 73.4,98.5 73.7,98.4 73.7,96.2 73.5,96.3 					"/>
					<polygon fill='#fff' points="74.6,95.8 74.9,95.8 74.9,95.2 74.6,95.2 74.5,95.3 74.5,95.3 74.5,95.8 74.5,95.8 					"/>
					<polygon fill='#fff' points="74.5,96.1 74.5,96.1 74.5,98.5 74.9,98.4 74.9,96.1 74.6,96.1 					"/>
					<polygon fill='#fff' points="75.6,96 75.6,96 75.6,98.5 76,98.4 76,95.9 75.8,95.9 					"/>
					<polygon fill='#fff' points="75.8,95.6 76,95.6 76,95.1 75.8,95.1 75.6,95.1 75.6,95.1 75.6,95.7 75.6,95.6 					"/>
				</g>
			</g>
		</g>
	</g>
	<line class="st2" x1="73.2" y1="91.1" x2="77" y2="91.1"/>
	<rect x="58.1" y="101.7" class="st3" width="1.5" height="2"/>
	<rect x="58.1" y="104.8" class="st3" width="1.5" height="2"/>
	<rect x="58.1" y="107.8" class="st3" width="1.5" height="2"/>
	<rect x="58.1" y="110.9" class="st3" width="1.5" height="2"/>
	<rect x="58.1" y="114" class="st3" width="1.5" height="2"/>
	<rect x="60.9" y="101.7" class="st3" width="1.5" height="2"/>
	<rect x="60.9" y="104.8" class="st3" width="1.5" height="2"/>
	<rect x="60.9" y="107.8" class="st3" width="1.5" height="2"/>
	<rect x="60.9" y="110.9" class="st3" width="1.5" height="2"/>
	<rect x="60.9" y="114" class="st3" width="1.5" height="2"/>
	<rect x="72.7" y="100.7" class="st3" width="1.5" height="2"/>
	<rect x="72.7" y="103.8" class="st3" width="1.5" height="2"/>
	<rect x="72.7" y="106.8" class="st3" width="1.5" height="2"/>
	<rect x="72.7" y="109.9" class="st3" width="1.5" height="2"/>
	<rect x="72.7" y="113" class="st3" width="1.5" height="2"/>
	<rect x="75.5" y="100.7" class="st3" width="1.5" height="2"/>
	<rect x="75.5" y="103.8" class="st3" width="1.5" height="2"/>
	<rect x="75.5" y="106.8" class="st3" width="1.5" height="2"/>
	<rect x="75.5" y="109.9" class="st3" width="1.5" height="2"/>
	<rect x="75.5" y="113" class="st3" width="1.5" height="2"/>
	<path fill='#fff' class="st1" d="M82.8,94.8"/>
	<polyline fill='#fff' class="st2" points="77.1,91.1 82.6,94.8 82.6,101.2 	"/>
	<path fill='#fff' class="st1" d="M85.2,102.7"/>
	<polygon fill='#fff' class="st4" points="85.1,102.8 78.6,99.4 78.8,99.1 85.3,102.5 	"/>
	<path fill='#fff' class="st1" d="M65.3,60.8"/>
	<path fill='#fff' class="st1" d="M85.2,114.1"/>
	<path fill='#fff' class="st1" d="M79.5,61.4"/>
	<line class="st2" x1="70.6" y1="120" x2="67.2" y2="119.8"/>
	<g>
		<path fill='#fff' d="M50.9,2V1.4h13.8V2H50.9z M50.9,19.1h13.8v0.6H50.9V19.1z M52.1,4.4h10.9v0.6h-5.2v4H63v0.6h-5.4v6.6h6v0.6H52.1V4.4z"/>
		<path fill='#fff' d="M64,2V1.4h13.2V2H64z M64,19.1h13.2v0.6H64V19.1z M65.2,4.4h5.6v11.7h5.9v0.6H65.2V4.4z"/>
		<path fill='#fff' d="M75.9,2V1.4h15.3V2H75.9z M75.9,19.1h15.3v0.6H75.9V19.1z M76.2,4.4h6.7l3.6,5.5l3.6-5.5h0.7L82.6,17h-0.7l1.6-2.4
			L76.2,4.4z"/>
	</g>
	<g>
		<path fill='#fff' d="M3.6,139.6V139h14.3v0.6H3.6z M3.6,156.8h14.3v0.6H3.6V156.8z M4.8,142h7.6c1.4,0,2.6,0.3,3.4,1c0.8,0.7,1.2,1.7,1.2,3
			c0,1.2-0.4,2.2-1.2,2.9c-0.8,0.7-1.9,1.1-3.4,1.1c-0.3,0-0.7,0-1-0.1c-0.3-0.1-0.7-0.2-1-0.3v4.7H4.8V142z M10.4,149
			c0.3,0.1,0.6,0.2,1,0.3c0.4,0.1,0.7,0.1,1,0.1c0.6,0,1.1-0.1,1.6-0.2c0.5-0.2,0.9-0.4,1.3-0.7c0.3-0.3,0.6-0.6,0.8-1.1
			c0.2-0.4,0.3-0.9,0.3-1.4c0-1-0.3-1.9-1-2.5c-0.6-0.6-1.6-0.9-3-0.9h-2V149z"/>
		<path fill='#fff' d="M17.3,139.6V139h14.9v0.6H17.3z M17.3,156.8h14.9v0.6H17.3V156.8z M18.5,142h7.6c1.4,0,2.6,0.3,3.4,1
			c0.8,0.7,1.2,1.7,1.2,3c0,0.9-0.2,1.6-0.7,2.3c-0.4,0.6-1.1,1.1-1.9,1.4v0c0.4,0.1,0.8,0.2,1,0.4c0.3,0.2,0.5,0.4,0.6,0.6
			c0.1,0.2,0.3,0.5,0.3,0.8s0.1,0.5,0.1,0.8v1.5h1.4v0.6h-2v-2.1c0-0.8-0.3-1.4-0.8-1.8c-0.5-0.3-1.4-0.5-2.6-0.5
			c-0.3,0-0.7,0-1.1,0c-0.4,0-0.7,0-0.9,0.1v4.3h-5.6V142z M24.1,149.3c0.2,0,0.6,0,0.9,0c0.4,0,0.7,0,1.1,0c0.8,0,1.4-0.1,1.9-0.3
			c0.5-0.2,0.9-0.5,1.2-0.8c0.3-0.3,0.5-0.7,0.6-1.1c0.1-0.4,0.2-0.8,0.2-1.2c0-1-0.3-1.9-1-2.5c-0.6-0.6-1.6-0.9-3-0.9h-2V149.3z"
			/>
		<path fill='#fff' d="M30.8,139.6V139h15.9v0.6H30.8z M30.8,156.8h15.9v0.6H30.8V156.8z M45.4,148.2c0,0.9-0.2,1.7-0.5,2.5
			c-0.3,0.8-0.8,1.5-1.5,2.1c-0.6,0.6-1.4,1.1-2.2,1.4c-0.8,0.3-1.7,0.5-2.6,0.5c-0.9,0-1.8-0.2-2.6-0.5c-0.8-0.3-1.5-0.8-2.1-1.4
			c-0.6-0.6-1.1-1.3-1.4-2.1c-0.4-0.8-0.5-1.6-0.5-2.5c0-0.9,0.2-1.7,0.5-2.5c0.4-0.8,0.8-1.5,1.4-2.1c0.6-0.6,1.3-1.1,2.1-1.4
			c0.8-0.3,1.7-0.5,2.6-0.5c0.9,0,1.8,0.2,2.6,0.5c0.8,0.3,1.5,0.8,2.2,1.4c0.6,0.6,1.1,1.3,1.5,2.1
			C45.3,146.5,45.4,147.3,45.4,148.2z M38.1,154.1c0.1,0,0.2,0,0.3,0c0.1,0,0.2,0,0.3,0c1.5,0,2.8-0.4,3.9-1.3
			c0.7-0.6,1.3-1.3,1.7-2.1c0.4-0.8,0.6-1.7,0.6-2.6c0-0.9-0.2-1.7-0.6-2.5c-0.4-0.8-1-1.5-1.7-2.1c-1.1-0.9-2.4-1.4-3.9-1.4
			c-0.1,0-0.2,0-0.3,0c-0.1,0-0.2,0-0.3,0V154.1z"/>
		<path fill='#fff' d="M45.8,139.6V139h15.2v0.6H45.8z M45.8,156.8h15.2v0.6H45.8V156.8z M52.7,142c0.6,0,1.1,0,1.6,0c0.5,0,0.9,0.1,1.3,0.2
			c0.4,0.1,0.8,0.2,1.2,0.4c0.4,0.2,0.7,0.5,1.1,0.8c0.6,0.6,1.1,1.3,1.5,2.1c0.3,0.8,0.5,1.7,0.5,2.6c0,0.9-0.2,1.8-0.5,2.6
			c-0.3,0.8-0.8,1.5-1.5,2.1c-0.4,0.3-0.8,0.6-1.1,0.8c-0.4,0.2-0.8,0.3-1.2,0.4c-0.4,0.1-0.9,0.2-1.3,0.2c-0.5,0-1,0-1.6,0H47V142
			H52.7z M53,153.7c0.5,0,1,0,1.4,0c0.4,0,0.8-0.1,1.1-0.2c0.4-0.1,0.7-0.2,1-0.4c0.3-0.2,0.7-0.4,1-0.7c0.6-0.5,1-1.1,1.3-1.9
			c0.3-0.7,0.4-1.5,0.4-2.4c0-0.9-0.1-1.7-0.4-2.4s-0.7-1.3-1.3-1.9c-0.3-0.3-0.7-0.5-1-0.7c-0.3-0.2-0.7-0.3-1-0.4
			c-0.4-0.1-0.7-0.2-1.1-0.2c-0.4,0-0.9,0-1.4,0h-0.3v11.2H53z"/>
		<path fill='#fff' d="M60.2,139.6V139h15v0.6H60.2z M60.2,156.8h15v0.6h-15V156.8z M67,142v12.1h0.8c1.1,0,2-0.1,2.8-0.4c0.7-0.3,1.3-0.6,1.7-1
			c0.4-0.4,0.7-0.9,0.9-1.4c0.2-0.5,0.2-1.1,0.2-1.6V142H74v7.7c0,1.6-0.5,2.8-1.5,3.7c-1,0.9-2.6,1.3-4.7,1.3c-1,0-1.8-0.1-2.6-0.3
			c-0.8-0.2-1.5-0.5-2-0.9s-1-0.9-1.3-1.5c-0.3-0.6-0.5-1.3-0.5-2.1V142H67z"/>
		<path fill='#fff' d="M74.2,139.6V139h15.2v0.6H74.2z M74.2,156.8h15.2v0.6H74.2V156.8z M81.6,154.1c0.2,0,0.4,0.1,0.6,0.1
			c0.7,0,1.3-0.1,1.9-0.3c0.6-0.2,1.2-0.5,1.7-0.8c0.5-0.3,1-0.7,1.4-1.2c0.4-0.4,0.8-0.9,1-1.4l0.5,0.3c-0.3,0.6-0.7,1.1-1.1,1.6
			c-0.5,0.5-1,0.9-1.5,1.2c-0.6,0.3-1.1,0.6-1.8,0.8c-0.6,0.2-1.3,0.3-1.9,0.3c-2,0-3.6-0.6-4.9-1.9c-1.3-1.3-2-2.8-2-4.6
			c0-0.9,0.2-1.7,0.5-2.5c0.3-0.8,0.8-1.5,1.5-2.1c1.3-1.3,2.9-1.9,4.9-1.9c0.6,0,1.1,0.1,1.7,0.2c0.6,0.1,1.1,0.3,1.6,0.6
			c0.5,0.3,1,0.6,1.4,0.9c0.4,0.4,0.8,0.8,1.1,1.3l-0.5,0.4c-0.7-0.9-1.5-1.6-2.5-2.1c-1-0.5-2-0.7-3-0.7c-0.1,0-0.2,0-0.4,0
			c-0.2,0-0.3,0-0.4,0V154.1z"/>
		<path fill='#fff' d="M88.5,139.6V139h13.2v0.6H88.5z M88.5,156.8h13.2v0.6H88.5V156.8z M92.3,142.6H89V142h12.2v0.6H98v11.7h-5.6V142.6z"/>
		<path fill='#fff' d="M101.3,139.6V139h8v0.6H101.3z M101.3,156.8h8v0.6h-8V156.8z M102.5,142h5.6v12.3h-5.6V142z"/>
		<path fill='#fff' d="M108.5,139.6V139h15.9v0.6H108.5z M108.5,156.8h15.9v0.6h-15.9V156.8z M123.2,148.2c0,0.9-0.2,1.7-0.5,2.5
			c-0.3,0.8-0.8,1.5-1.5,2.1c-0.6,0.6-1.4,1.1-2.2,1.4c-0.8,0.3-1.7,0.5-2.6,0.5c-0.9,0-1.8-0.2-2.6-0.5c-0.8-0.3-1.5-0.8-2.1-1.4
			c-0.6-0.6-1.1-1.3-1.4-2.1c-0.4-0.8-0.5-1.6-0.5-2.5c0-0.9,0.2-1.7,0.5-2.5c0.4-0.8,0.8-1.5,1.4-2.1c0.6-0.6,1.3-1.1,2.1-1.4
			c0.8-0.3,1.7-0.5,2.6-0.5c0.9,0,1.8,0.2,2.6,0.5c0.8,0.3,1.5,0.8,2.2,1.4c0.6,0.6,1.1,1.3,1.5,2.1
			C123,146.5,123.2,147.3,123.2,148.2z M115.8,154.1c0.1,0,0.2,0,0.3,0c0.1,0,0.2,0,0.3,0c1.5,0,2.8-0.4,3.9-1.3
			c0.7-0.6,1.3-1.3,1.7-2.1c0.4-0.8,0.6-1.7,0.6-2.6c0-0.9-0.2-1.7-0.6-2.5c-0.4-0.8-1-1.5-1.7-2.1c-1.1-0.9-2.4-1.4-3.9-1.4
			c-0.1,0-0.2,0-0.3,0c-0.1,0-0.2,0-0.3,0V154.1z"/>
		<path fill='#fff' d="M123.6,139.6V139h14.8v0.6H123.6z M123.6,156.8h14.8v0.6h-14.8V156.8z M124.8,154.3v-12.7l11.8,6.3V142h0.6v12.7
			l-11.8-6.3v5.9H124.8z"/>
	</g>
	<g>
		<g>
			<path fill='#fff' d="M123.2,54.1c-0.1,0-0.2,0.1-0.2,0.3c0,0.1,0,0.1,0,0.2l-1.4,1.1l0.3-1.6c0,0,0,0,0.1,0c0.1,0,0.2-0.1,0.2-0.3
				c0-0.2-0.1-0.3-0.2-0.3c-0.1,0-0.2,0.1-0.2,0.3c0,0.1,0,0.2,0.1,0.2l-0.8,1.3l-0.3-2.2c0.1,0,0.2-0.2,0.2-0.3
				c0-0.2-0.1-0.3-0.2-0.3c-0.1,0-0.2,0.1-0.2,0.3c0,0.2,0.1,0.3,0.2,0.3l-0.3,2.2l-0.8-1.3c0-0.1,0.1-0.1,0.1-0.2
				c0-0.2-0.1-0.3-0.2-0.3c-0.1,0-0.2,0.1-0.2,0.3c0,0.2,0.1,0.3,0.2,0.3c0,0,0,0,0.1,0l0.3,1.6l-1.4-1.1c0,0,0-0.1,0-0.2
				c0-0.2-0.1-0.3-0.2-0.3c-0.1,0-0.2,0.1-0.2,0.3c0,0.2,0.1,0.3,0.2,0.3c0,0,0.1,0,0.1-0.1l1.1,2.4h2.5l1.1-2.4
				c0,0,0.1,0.1,0.1,0.1c0.1,0,0.2-0.1,0.2-0.3C123.5,54.2,123.4,54.1,123.2,54.1z M120.7,56.7l-0.3-0.4l0.3-0.4l0.3,0.4L120.7,56.7
				z"/>
		</g>
	</g>
</g>
</svg>
